<?xml version="1.0" encoding="UTF-8" standalone="no"?>
<!DOCTYPE svg PUBLIC "-//W3C//DTD SVG 1.1//EN"
 "http://www.w3.org/Graphics/SVG/1.1/DTD/svg11.dtd">
<!-- Generated by graphviz version 2.38.0 (20140413.2041)
 -->
<!-- Title: models_diagram Pages: 1 -->
<svg width="816pt" height="708pt"
 viewBox="0.00 0.00 816.00 708.00" xmlns="http://www.w3.org/2000/svg" xmlns:xlink="http://www.w3.org/1999/xlink">
<g id="graph0" class="graph" transform="scale(1 1) rotate(0) translate(4 704)">
<title>models_diagram</title>
<polygon fill="none" stroke="none" points="-4,4 -4,-704 812,-704 812,4 -4,4"/>
<!-- _diagram_info -->
<g id="node1" class="node"><title>_diagram_info</title>
<text text-anchor="start" x="8" y="-513.6" font-family="Times,serif" font-size="13.00">Models diagram</text>
<text text-anchor="start" x="8" y="-499.6" font-family="Times,serif" font-size="13.00">Date: Dec 12 2015 &#45; 15:22</text>
<text text-anchor="start" x="8" y="-485.6" font-family="Times,serif" font-size="13.00">Migration version: 20151026195317</text>
<text text-anchor="start" x="8" y="-471.6" font-family="Times,serif" font-size="13.00">Generated by RailRoady 1.4.2</text>
<text text-anchor="start" x="8" y="-457.6" font-family="Times,serif" font-size="13.00">http://railroady.prestonlee.com</text>
</g>
<!-- User -->
<g id="node2" class="node"><title>User</title>
<path fill="none" stroke="black" d="M244.5,-278.5C244.5,-278.5 533.5,-278.5 533.5,-278.5 539.5,-278.5 545.5,-284.5 545.5,-290.5 545.5,-290.5 545.5,-687.5 545.5,-687.5 545.5,-693.5 539.5,-699.5 533.5,-699.5 533.5,-699.5 244.5,-699.5 244.5,-699.5 238.5,-699.5 232.5,-693.5 232.5,-687.5 232.5,-687.5 232.5,-290.5 232.5,-290.5 232.5,-284.5 238.5,-278.5 244.5,-278.5"/>
<text text-anchor="middle" x="389" y="-684.3" font-family="Times,serif" font-size="14.00">User</text>
<polyline fill="none" stroke="black" points="232.5,-676.5 545.5,-676.5 "/>
<text text-anchor="start" x="240.5" y="-661.3" font-family="Times,serif" font-size="14.00">id :integer</text>
<text text-anchor="start" x="240.5" y="-646.3" font-family="Times,serif" font-size="14.00">provider :character varying</text>
<text text-anchor="start" x="240.5" y="-631.3" font-family="Times,serif" font-size="14.00">uid :character varying</text>
<text text-anchor="start" x="240.5" y="-616.3" font-family="Times,serif" font-size="14.00">encrypted_password :character varying</text>
<text text-anchor="start" x="240.5" y="-601.3" font-family="Times,serif" font-size="14.00">reset_password_token :character varying</text>
<text text-anchor="start" x="240.5" y="-586.3" font-family="Times,serif" font-size="14.00">reset_password_sent_at :timestamp without time zone</text>
<text text-anchor="start" x="240.5" y="-571.3" font-family="Times,serif" font-size="14.00">remember_created_at :timestamp without time zone</text>
<text text-anchor="start" x="240.5" y="-556.3" font-family="Times,serif" font-size="14.00">sign_in_count :integer</text>
<text text-anchor="start" x="240.5" y="-541.3" font-family="Times,serif" font-size="14.00">current_sign_in_at :timestamp without time zone</text>
<text text-anchor="start" x="240.5" y="-526.3" font-family="Times,serif" font-size="14.00">last_sign_in_at :timestamp without time zone</text>
<text text-anchor="start" x="240.5" y="-511.3" font-family="Times,serif" font-size="14.00">current_sign_in_ip :character varying</text>
<text text-anchor="start" x="240.5" y="-496.3" font-family="Times,serif" font-size="14.00">last_sign_in_ip :character varying</text>
<text text-anchor="start" x="240.5" y="-481.3" font-family="Times,serif" font-size="14.00">confirmation_token :character varying</text>
<text text-anchor="start" x="240.5" y="-466.3" font-family="Times,serif" font-size="14.00">confirmed_at :timestamp without time zone</text>
<text text-anchor="start" x="240.5" y="-451.3" font-family="Times,serif" font-size="14.00">confirmation_sent_at :timestamp without time zone</text>
<text text-anchor="start" x="240.5" y="-436.3" font-family="Times,serif" font-size="14.00">unconfirmed_email :character varying</text>
<text text-anchor="start" x="240.5" y="-421.3" font-family="Times,serif" font-size="14.00">name :character varying</text>
<text text-anchor="start" x="240.5" y="-406.3" font-family="Times,serif" font-size="14.00">lastname :character varying</text>
<text text-anchor="start" x="240.5" y="-391.3" font-family="Times,serif" font-size="14.00">role :character varying</text>
<text text-anchor="start" x="240.5" y="-376.3" font-family="Times,serif" font-size="14.00">phone_number :character varying</text>
<text text-anchor="start" x="240.5" y="-361.3" font-family="Times,serif" font-size="14.00">nickname :character varying</text>
<text text-anchor="start" x="240.5" y="-346.3" font-family="Times,serif" font-size="14.00">image :character varying</text>
<text text-anchor="start" x="240.5" y="-331.3" font-family="Times,serif" font-size="14.00">email :character varying</text>
<text text-anchor="start" x="240.5" y="-316.3" font-family="Times,serif" font-size="14.00">tokens :json</text>
<text text-anchor="start" x="240.5" y="-301.3" font-family="Times,serif" font-size="14.00">created_at :timestamp without time zone</text>
<text text-anchor="start" x="240.5" y="-286.3" font-family="Times,serif" font-size="14.00">updated_at :timestamp without time zone</text>
</g>
<!-- Advertisement -->
<g id="node3" class="node"><title>Advertisement</title>
<path fill="none" stroke="black" d="M427,-0.5C427,-0.5 647,-0.5 647,-0.5 653,-0.5 659,-6.5 659,-12.5 659,-12.5 659,-229.5 659,-229.5 659,-235.5 653,-241.5 647,-241.5 647,-241.5 427,-241.5 427,-241.5 421,-241.5 415,-235.5 415,-229.5 415,-229.5 415,-12.5 415,-12.5 415,-6.5 421,-0.5 427,-0.5"/>
<text text-anchor="middle" x="537" y="-226.3" font-family="Times,serif" font-size="14.00">Advertisement</text>
<polyline fill="none" stroke="black" points="415,-218.5 659,-218.5 "/>
<text text-anchor="start" x="423" y="-203.3" font-family="Times,serif" font-size="14.00">id :integer</text>
<text text-anchor="start" x="423" y="-188.3" font-family="Times,serif" font-size="14.00">title :character varying</text>
<text text-anchor="start" x="423" y="-173.3" font-family="Times,serif" font-size="14.00">content :text</text>
<text text-anchor="start" x="423" y="-158.3" font-family="Times,serif" font-size="14.00">profession :character varying</text>
<text text-anchor="start" x="423" y="-143.3" font-family="Times,serif" font-size="14.00">active :boolean</text>
<text text-anchor="start" x="423" y="-128.3" font-family="Times,serif" font-size="14.00">contact_email :character varying</text>
<text text-anchor="start" x="423" y="-113.3" font-family="Times,serif" font-size="14.00">contact_phone :character varying</text>
<text text-anchor="start" x="423" y="-98.3" font-family="Times,serif" font-size="14.00">contact_person :character varying</text>
<text text-anchor="start" x="423" y="-83.3" font-family="Times,serif" font-size="14.00">type_of_employment :character varying</text>
<text text-anchor="start" x="423" y="-68.3" font-family="Times,serif" font-size="14.00">expires_at :timestamp without time zone</text>
<text text-anchor="start" x="423" y="-53.3" font-family="Times,serif" font-size="14.00">category_id :integer</text>
<text text-anchor="start" x="423" y="-38.3" font-family="Times,serif" font-size="14.00">user_id :integer</text>
<text text-anchor="start" x="423" y="-23.3" font-family="Times,serif" font-size="14.00">created_at :timestamp without time zone</text>
<text text-anchor="start" x="423" y="-8.3" font-family="Times,serif" font-size="14.00">updated_at :timestamp without time zone</text>
</g>
<!-- User&#45;&gt;Advertisement -->
<g id="edge1" class="edge"><title>User&#45;&gt;Advertisement</title>
<path fill="none" stroke="#3307cb" d="M476.866,-270.71C479.546,-264.082 482.201,-257.516 484.816,-251.048"/>
<ellipse fill="none" stroke="#3307cb" cx="475.305" cy="-274.57" rx="4.00001" ry="4.00001"/>
<polygon fill="#3307cb" stroke="#3307cb" points="484.869,-250.919 492.79,-243.335 486.743,-246.284 488.618,-241.648 488.618,-241.648 488.618,-241.648 486.743,-246.284 484.446,-239.961 484.869,-250.919 484.869,-250.919"/>
</g>
<!-- Category -->
<g id="node4" class="node"><title>Category</title>
<path fill="none" stroke="black" d="M576,-421C576,-421 796,-421 796,-421 802,-421 808,-427 808,-433 808,-433 808,-545 808,-545 808,-551 802,-557 796,-557 796,-557 576,-557 576,-557 570,-557 564,-551 564,-545 564,-545 564,-433 564,-433 564,-427 570,-421 576,-421"/>
<text text-anchor="middle" x="686" y="-541.8" font-family="Times,serif" font-size="14.00">Category</text>
<polyline fill="none" stroke="black" points="564,-534 808,-534 "/>
<text text-anchor="start" x="572" y="-518.8" font-family="Times,serif" font-size="14.00">id :integer</text>
<text text-anchor="start" x="572" y="-503.8" font-family="Times,serif" font-size="14.00">name :character varying</text>
<text text-anchor="start" x="572" y="-488.8" font-family="Times,serif" font-size="14.00">ancestry :character varying</text>
<text text-anchor="start" x="572" y="-473.8" font-family="Times,serif" font-size="14.00">description :text</text>
<text text-anchor="start" x="572" y="-458.8" font-family="Times,serif" font-size="14.00">enabled :boolean</text>
<text text-anchor="start" x="572" y="-443.8" font-family="Times,serif" font-size="14.00">created_at :timestamp without time zone</text>
<text text-anchor="start" x="572" y="-428.8" font-family="Times,serif" font-size="14.00">updated_at :timestamp without time zone</text>
</g>
<!-- Category&#45;&gt;Advertisement -->
<g id="edge2" class="edge"><title>Category&#45;&gt;Advertisement</title>
<path fill="none" stroke="#01c1a1" d="M655.631,-413.402C636.636,-366.744 611.657,-305.385 589.521,-251.011"/>
<ellipse fill="none" stroke="#01c1a1" cx="657.163" cy="-417.165" rx="4.00002" ry="4.00002"/>
<polygon fill="#01c1a1" stroke="#01c1a1" points="589.48,-250.91 589.877,-239.951 587.595,-246.279 585.709,-241.648 585.709,-241.648 585.709,-241.648 587.595,-246.279 581.541,-243.345 589.48,-250.91 589.48,-250.91"/>
</g>
</g>
</svg>
