<?xml version="1.0" encoding="UTF-8" standalone="no"?>
<!DOCTYPE svg PUBLIC "-//W3C//DTD SVG 1.1//EN"
 "http://www.w3.org/Graphics/SVG/1.1/DTD/svg11.dtd">
<!-- Generated by graphviz version 2.38.0 (20140413.2041)
 -->
<!-- Title: controllers_diagram Pages: 1 -->
<svg width="473pt" height="392pt"
 viewBox="0.00 0.00 473.50 391.50" xmlns="http://www.w3.org/2000/svg" xmlns:xlink="http://www.w3.org/1999/xlink">
<g id="graph0" class="graph" transform="scale(1 1) rotate(0) translate(111.5 243.5)">
<title>controllers_diagram</title>
<polygon fill="none" stroke="none" points="-111.5,148 -111.5,-243.5 362,-243.5 362,148 -111.5,148"/>
<!-- _diagram_info -->
<g id="node1" class="node"><title>_diagram_info</title>
<text text-anchor="start" x="152" y="80.4" font-family="Times,serif" font-size="13.00">Controllers diagram</text>
<text text-anchor="start" x="152" y="94.4" font-family="Times,serif" font-size="13.00">Date: Dec 12 2015 &#45; 15:22</text>
<text text-anchor="start" x="152" y="108.4" font-family="Times,serif" font-size="13.00">Migration version: 20151026195317</text>
<text text-anchor="start" x="152" y="122.4" font-family="Times,serif" font-size="13.00">Generated by RailRoady 1.4.2</text>
<text text-anchor="start" x="152" y="136.4" font-family="Times,serif" font-size="13.00">http://railroady.prestonlee.com</text>
</g>
<!-- Api::V1::AdvertisementsController -->
<g id="node2" class="node"><title>Api::V1::AdvertisementsController</title>
<path fill="none" stroke="black" d="M-95.5,107.5C-95.5,107.5 89.5,107.5 89.5,107.5 95.5,107.5 101.5,101.5 101.5,95.5 101.5,95.5 101.5,-93.5 101.5,-93.5 101.5,-99.5 95.5,-105.5 89.5,-105.5 89.5,-105.5 -95.5,-105.5 -95.5,-105.5 -101.5,-105.5 -107.5,-99.5 -107.5,-93.5 -107.5,-93.5 -107.5,95.5 -107.5,95.5 -107.5,101.5 -101.5,107.5 -95.5,107.5"/>
<text text-anchor="middle" x="-3" y="-90.3" font-family="Times,serif" font-size="14.00">Api::V1::AdvertisementsController</text>
<polyline fill="none" stroke="black" points="-107.5,-82.5 101.5,-82.5 "/>
<text text-anchor="start" x="-99.5" y="-67.3" font-family="Times,serif" font-size="14.00">create</text>
<text text-anchor="start" x="-99.5" y="-52.3" font-family="Times,serif" font-size="14.00">destroy</text>
<text text-anchor="start" x="-99.5" y="-37.3" font-family="Times,serif" font-size="14.00">index</text>
<text text-anchor="start" x="-99.5" y="-22.3" font-family="Times,serif" font-size="14.00">show</text>
<text text-anchor="start" x="-99.5" y="-7.3" font-family="Times,serif" font-size="14.00">update</text>
<polyline fill="none" stroke="black" points="-107.5,0.5 101.5,0.5 "/>
<polyline fill="none" stroke="black" points="-107.5,24.5 101.5,24.5 "/>
<text text-anchor="start" x="-99.5" y="39.7" font-family="Times,serif" font-size="14.00">_layout</text>
<text text-anchor="start" x="-99.5" y="54.7" font-family="Times,serif" font-size="14.00">advert_params</text>
<text text-anchor="start" x="-99.5" y="69.7" font-family="Times,serif" font-size="14.00">require_owner!</text>
<text text-anchor="start" x="-99.5" y="84.7" font-family="Times,serif" font-size="14.00">set_ad</text>
<text text-anchor="start" x="-99.5" y="99.7" font-family="Times,serif" font-size="14.00">set_category</text>
</g>
<!-- Api::V1::CategoriesController -->
<g id="node3" class="node"><title>Api::V1::CategoriesController</title>
<path fill="none" stroke="black" d="M156,-90.5C156,-90.5 314,-90.5 314,-90.5 320,-90.5 326,-96.5 326,-102.5 326,-102.5 326,-171.5 326,-171.5 326,-177.5 320,-183.5 314,-183.5 314,-183.5 156,-183.5 156,-183.5 150,-183.5 144,-177.5 144,-171.5 144,-171.5 144,-102.5 144,-102.5 144,-96.5 150,-90.5 156,-90.5"/>
<text text-anchor="middle" x="235" y="-168.3" font-family="Times,serif" font-size="14.00">Api::V1::CategoriesController</text>
<polyline fill="none" stroke="black" points="144,-160.5 326,-160.5 "/>
<text text-anchor="start" x="152" y="-145.3" font-family="Times,serif" font-size="14.00">index</text>
<polyline fill="none" stroke="black" points="144,-137.5 326,-137.5 "/>
<polyline fill="none" stroke="black" points="144,-113.5 326,-113.5 "/>
<text text-anchor="start" x="152" y="-98.3" font-family="Times,serif" font-size="14.00">_layout</text>
</g>
<!-- Api::ApiController -->
<g id="node4" class="node"><title>Api::ApiController</title>
<path fill="none" stroke="black" d="M-6,-145C-6,-145 90,-145 90,-145 96,-145 102,-151 102,-157 102,-157 102,-227 102,-227 102,-233 96,-239 90,-239 90,-239 -6,-239 -6,-239 -12,-239 -18,-233 -18,-227 -18,-227 -18,-157 -18,-157 -18,-151 -12,-145 -6,-145"/>
<text text-anchor="middle" x="42" y="-223.8" font-family="Times,serif" font-size="14.00">Api::ApiController</text>
<polyline fill="none" stroke="black" points="-18,-216 102,-216 "/>
<polyline fill="none" stroke="black" points="-18,-192 102,-192 "/>
<polyline fill="none" stroke="black" points="-18,-168 102,-168 "/>
<text text-anchor="start" x="-10" y="-152.8" font-family="Times,serif" font-size="14.00">_layout</text>
</g>
<!-- ApplicationController -->
<g id="node5" class="node"><title>ApplicationController</title>
<path fill="none" stroke="black" d="M156,35.5C156,35.5 326,35.5 326,35.5 332,35.5 338,29.5 338,23.5 338,23.5 338,-45.5 338,-45.5 338,-51.5 332,-57.5 326,-57.5 326,-57.5 156,-57.5 156,-57.5 150,-57.5 144,-51.5 144,-45.5 144,-45.5 144,23.5 144,23.5 144,29.5 150,35.5 156,35.5"/>
<text text-anchor="middle" x="241" y="-42.3" font-family="Times,serif" font-size="14.00">ApplicationController</text>
<polyline fill="none" stroke="black" points="144,-34.5 338,-34.5 "/>
<text text-anchor="start" x="152" y="-19.3" font-family="Times,serif" font-size="14.00">configure_permitted_parameters</text>
<polyline fill="none" stroke="black" points="144,-11.5 338,-11.5 "/>
<polyline fill="none" stroke="black" points="144,12.5 338,12.5 "/>
<text text-anchor="start" x="152" y="27.7" font-family="Times,serif" font-size="14.00">_layout</text>
</g>
</g>
</svg>
