<?xml version="1.0" encoding="UTF-8" standalone="no"?>
<!DOCTYPE svg PUBLIC "-//W3C//DTD SVG 1.1//EN"
 "http://www.w3.org/Graphics/SVG/1.1/DTD/svg11.dtd">
<!-- Generated by graphviz version 2.38.0 (20140413.2041)
 -->
<!-- Title: models_diagram Pages: 1 -->
<svg width="398pt" height="158pt"
 viewBox="0.00 0.00 397.90 158.00" xmlns="http://www.w3.org/2000/svg" xmlns:xlink="http://www.w3.org/1999/xlink">
<g id="graph0" class="graph" transform="scale(1 1) rotate(0) translate(4 154)">
<title>models_diagram</title>
<polygon fill="none" stroke="none" points="-4,4 -4,-154 393.896,-154 393.896,4 -4,4"/>
<!-- _diagram_info -->
<g id="node1" class="node"><title>_diagram_info</title>
<text text-anchor="start" x="8" y="-135.6" font-family="Times,serif" font-size="13.00">Models diagram</text>
<text text-anchor="start" x="8" y="-121.6" font-family="Times,serif" font-size="13.00">Date: Dec 12 2015 &#45; 15:22</text>
<text text-anchor="start" x="8" y="-107.6" font-family="Times,serif" font-size="13.00">Migration version: 20151026195317</text>
<text text-anchor="start" x="8" y="-93.6" font-family="Times,serif" font-size="13.00">Generated by RailRoady 1.4.2</text>
<text text-anchor="start" x="8" y="-79.6" font-family="Times,serif" font-size="13.00">http://railroady.prestonlee.com</text>
</g>
<!-- User -->
<g id="node2" class="node"><title>User</title>
<ellipse fill="none" stroke="black" cx="259" cy="-111" rx="27.0966" ry="18"/>
<text text-anchor="middle" x="259" y="-107.3" font-family="Times,serif" font-size="14.00">User</text>
</g>
<!-- Advertisement -->
<g id="node3" class="node"><title>Advertisement</title>
<ellipse fill="none" stroke="black" cx="303" cy="-18" rx="63.0888" ry="18"/>
<text text-anchor="middle" x="303" y="-14.3" font-family="Times,serif" font-size="14.00">Advertisement</text>
</g>
<!-- User&#45;&gt;Advertisement -->
<g id="edge1" class="edge"><title>User&#45;&gt;Advertisement</title>
<path fill="none" stroke="#f7d103" d="M270.407,-86.4076C276.483,-73.8419 283.975,-58.348 290.243,-45.3844"/>
<ellipse fill="none" stroke="#f7d103" cx="268.608" cy="-90.1299" rx="4.00002" ry="4.00002"/>
<polygon fill="#f7d103" stroke="#f7d103" points="290.401,-45.0575 298.805,-38.0135 292.577,-40.5561 294.754,-36.0547 294.754,-36.0547 294.754,-36.0547 292.577,-40.5561 290.703,-34.0958 290.401,-45.0575 290.401,-45.0575"/>
</g>
<!-- Category -->
<g id="node4" class="node"><title>Category</title>
<ellipse fill="none" stroke="black" cx="347" cy="-111" rx="42.7926" ry="18"/>
<text text-anchor="middle" x="347" y="-107.3" font-family="Times,serif" font-size="14.00">Category</text>
</g>
<!-- Category&#45;&gt;Advertisement -->
<g id="edge2" class="edge"><title>Category&#45;&gt;Advertisement</title>
<path fill="none" stroke="#46f380" d="M335.383,-85.9739C329.308,-73.4092 321.862,-58.0096 315.642,-45.1464"/>
<ellipse fill="none" stroke="#46f380" cx="337.188" cy="-89.7081" rx="4.00002" ry="4.00002"/>
<polygon fill="#46f380" stroke="#46f380" points="315.521,-44.896 315.219,-33.9343 313.345,-40.3946 311.168,-35.8932 311.168,-35.8932 311.168,-35.8932 313.345,-40.3946 307.117,-37.852 315.521,-44.896 315.521,-44.896"/>
</g>
</g>
</svg>
